<svg version="1.2" baseProfile="tiny" id="Layer_1" xmlns="http://www.w3.org/2000/svg" xmlns:xlink="http://www.w3.org/1999/xlink" x="0px" y="0px" viewBox="0 0 172.238 180.994" xml:space="preserve">
                <path id="gear" fill="#0099B0" d="M152.336,57.604l-16.439-3.057c-0.4-0.075-0.838-0.451-0.973-0.837l-5.039-11.756
                    c-0.188-0.363-0.152-0.933,0.08-1.271l9.578-13.96c0.229-0.336,0.184-0.847-0.105-1.136l-11.963-11.963
                    c-0.289-0.289-0.799-0.336-1.135-0.105l-14.205,9.748c-0.336,0.231-0.912,0.272-1.277,0.092l-11.396-4.665
                    c-0.387-0.128-0.764-0.561-0.84-0.962L95.457,0.729C95.383,0.328,94.988,0,94.58,0H77.66c-0.407,0-0.802,0.328-0.876,0.729
                    L73.62,17.732c-0.076,0.401-0.452,0.834-0.84,0.962l-11.397,4.665c-0.366,0.18-0.942,0.139-1.277-0.092l-14.204-9.748
                    c-0.337-0.231-0.848-0.184-1.136,0.105L32.802,25.587c-0.288,0.289-0.336,0.8-0.105,1.136l9.579,13.96
                    c0.23,0.338,0.266,0.908,0.079,1.271l-5.04,11.756c-0.134,0.386-0.571,0.762-0.973,0.837l-16.438,3.057
                    c-0.402,0.076-0.729,0.47-0.729,0.878l0.001,16.919c0,0.408,0.328,0.805,0.729,0.878l16.035,2.984
                    c0.401,0.073,0.83,0.454,0.952,0.843l5.006,12.505c0.179,0.367,0.137,0.941-0.095,1.277l-9.108,13.273
                    c-0.23,0.336-0.183,0.848,0.105,1.137l11.965,11.963c0.288,0.287,0.799,0.334,1.136,0.105l13.038-8.949
                    c0.336-0.23,0.899-0.248,1.25-0.043l5.75,3.07c0.364,0.186,0.789,0.029,0.945-0.348L78.74,85.449c0.157-0.377,0-0.858-0.348-1.071
                    l-1.439-0.881c-0.266-0.162-0.627-0.441-0.91-0.697c-5.191-3.324-8.635-9.139-8.635-15.761c0-10.334,8.378-18.711,18.711-18.711
                    c10.333,0,18.71,8.377,18.71,18.711c0,6.622-3.443,12.437-8.635,15.761c-0.281,0.256-0.643,0.535-0.908,0.697l-1.439,0.881
                    c-0.346,0.213-0.504,0.694-0.348,1.071l11.855,28.648c0.156,0.377,0.58,0.533,0.945,0.348l5.75-3.07
                    c0.352-0.205,0.914-0.188,1.25,0.043l13.039,8.949c0.336,0.229,0.848,0.182,1.135-0.105l11.965-11.963
                    c0.289-0.289,0.336-0.801,0.105-1.137l-9.109-13.273c-0.23-0.336-0.273-0.91-0.094-1.277l5.006-12.505
                    c0.123-0.389,0.549-0.77,0.951-0.843l16.035-2.984c0.4-0.073,0.729-0.47,0.729-0.878l0.002-16.919
                    C153.064,58.074,152.736,57.68,152.336,57.604"></path>
                
            <path d="M21.734 146.430Q22.724 146.430 23.369 146.265Q24.014 146.100 24.404 145.815Q24.794 145.530 24.944 145.140Q25.094 144.750 25.094 144.270Q25.094 143.250 24.134 142.575Q23.174 141.900 20.834 141.120Q19.814 140.760 18.794 140.295Q17.774 139.830 16.964 139.125Q16.154 138.420 15.644 137.415Q15.134 136.410 15.134 134.970Q15.134 133.530 15.674 132.375Q16.214 131.220 17.204 130.410Q18.194 129.600 19.604 129.165Q21.014 128.730 22.784 128.730Q24.884 128.730 26.414 129.180Q27.944 129.630 28.934 130.170L27.584 133.860Q26.714 133.410 25.649 133.065Q24.584 132.720 23.084 132.720Q21.404 132.720 20.669 133.185Q19.934 133.650 19.934 134.610Q19.934 135.180 20.204 135.570Q20.474 135.960 20.969 136.275Q21.464 136.590 22.109 136.845Q22.754 137.100 23.534 137.370Q25.154 137.970 26.354 138.555Q27.554 139.140 28.349 139.920Q29.144 140.700 29.534 141.750Q29.924 142.800 29.924 144.300Q29.924 147.210 27.884 148.815Q25.844 150.420 21.734 150.420Q20.354 150.420 19.244 150.255Q18.134 150.090 17.279 149.850Q16.424 149.610 15.809 149.340Q15.194 149.070 14.774 148.830L16.094 145.110Q17.024 145.620 18.389 146.025Q19.754 146.430 21.734 146.430ZM39.764 128.970Q44.414 128.970 46.904 130.605Q49.394 132.240 49.394 135.960Q49.394 139.710 46.874 141.375Q44.354 143.040 39.674 143.040L38.204 143.040L38.204 150L33.524 150L33.524 129.510Q35.054 129.210 36.764 129.090Q38.474 128.970 39.764 128.970M40.064 132.960Q39.554 132.960 39.059 132.990Q38.564 133.020 38.204 133.050L38.204 139.050L39.674 139.050Q42.104 139.050 43.334 138.390Q44.564 137.730 44.564 135.930Q44.564 135.060 44.249 134.490Q43.934 133.920 43.349 133.575Q42.764 133.230 41.924 133.095Q41.084 132.960 40.064 132.960ZM52.844 150L52.844 129.210L66.764 129.210L66.764 133.140L57.524 133.140L57.524 137.490L65.744 137.490L65.744 141.420L57.524 141.420L57.524 150L52.844 150ZM75.584 129.210Q76.124 130.200 76.829 131.655Q77.534 133.110 78.299 134.805Q79.064 136.500 79.814 138.270Q80.564 140.040 81.224 141.600Q81.884 140.040 82.634 138.270Q83.384 136.500 84.149 134.805Q84.914 133.110 85.619 131.655Q86.324 130.200 86.864 129.210L91.124 129.210Q91.424 131.280 91.679 133.845Q91.934 136.410 92.129 139.185Q92.324 141.960 92.489 144.750Q92.654 147.540 92.774 150L88.214 150Q88.124 146.970 87.974 143.400Q87.824 139.830 87.524 136.200Q86.984 137.460 86.324 138.990Q85.664 140.520 85.019 142.050Q84.374 143.580 83.774 144.975Q83.174 146.370 82.754 147.360L79.484 147.360Q79.064 146.370 78.464 144.975Q77.864 143.580 77.219 142.050Q76.574 140.520 75.914 138.990Q75.254 137.460 74.714 136.200Q74.414 139.830 74.264 143.400Q74.114 146.970 74.024 150L69.464 150Q69.584 147.540 69.749 144.750Q69.914 141.960 70.109 139.185Q70.304 136.410 70.559 133.845Q70.814 131.280 71.114 129.210L75.584 129.210ZM101.654 146.190Q101.984 146.220 102.419 146.235Q102.854 146.250 103.454 146.250Q106.964 146.250 108.659 144.480Q110.354 142.710 110.354 139.590Q110.354 136.320 108.734 134.640Q107.114 132.960 103.604 132.960Q103.124 132.960 102.614 132.975Q102.104 132.990 101.654 133.050L101.654 146.190M115.184 139.590Q115.184 142.290 114.344 144.300Q113.504 146.310 111.959 147.630Q110.414 148.950 108.194 149.610Q105.974 150.270 103.214 150.270Q101.954 150.270 100.274 150.165Q98.594 150.060 96.974 149.730L96.974 129.480Q98.594 129.180 100.349 129.075Q102.104 128.970 103.364 128.970Q106.034 128.970 108.209 129.570Q110.384 130.170 111.944 131.460Q113.504 132.750 114.344 134.760Q115.184 136.770 115.184 139.590ZM126.014 150.270Q124.304 150.270 122.609 150.165Q120.914 150.060 119.084 149.670L119.084 129.510Q120.524 129.240 122.234 129.105Q123.944 128.970 125.414 128.970Q127.394 128.970 129.059 129.255Q130.724 129.540 131.924 130.230Q133.124 130.920 133.799 132.045Q134.474 133.170 134.474 134.820Q134.474 137.310 132.074 138.750Q134.054 139.500 134.774 140.790Q135.494 142.080 135.494 143.700Q135.494 146.970 133.109 148.620Q130.724 150.270 126.014 150.270M123.644 140.940L123.644 146.310Q124.154 146.370 124.754 146.400Q125.354 146.430 126.074 146.430Q128.174 146.430 129.464 145.830Q130.754 145.230 130.754 143.610Q130.754 142.170 129.674 141.555Q128.594 140.940 126.584 140.940L123.644 140.940M123.644 137.370L125.924 137.370Q128.084 137.370 129.014 136.815Q129.944 136.260 129.944 135.030Q129.944 133.770 128.984 133.260Q128.024 132.750 126.164 132.750Q125.564 132.750 124.874 132.765Q124.184 132.780 123.644 132.840L123.644 137.370ZM148.724 150.420Q143.654 150.420 140.999 147.600Q138.344 144.780 138.344 139.590Q138.344 137.010 139.154 134.985Q139.964 132.960 141.374 131.565Q142.784 130.170 144.734 129.450Q146.684 128.730 148.964 128.730Q150.284 128.730 151.364 128.925Q152.444 129.120 153.254 129.375Q154.064 129.630 154.604 129.900Q155.144 130.170 155.384 130.320L154.034 134.100Q153.074 133.590 151.799 133.230Q150.524 132.870 148.904 132.870Q147.824 132.870 146.789 133.230Q145.754 133.590 144.959 134.385Q144.164 135.180 143.684 136.440Q143.204 137.700 143.204 139.500Q143.204 140.940 143.519 142.185Q143.834 143.430 144.539 144.330Q145.244 145.230 146.384 145.755Q147.524 146.280 149.144 146.280Q150.164 146.280 150.974 146.160Q151.784 146.040 152.414 145.875Q153.044 145.710 153.524 145.500Q154.004 145.290 154.394 145.110L155.684 148.860Q154.694 149.460 152.894 149.940Q151.094 150.420 148.724 150.420Z" id="text" fill="#0099B0"></path></svg>